<?xml version="1.0" standalone="no"?>
<!DOCTYPE svg PUBLIC "-//W3C//DTD SVG 20010904//EN"
 "http://www.w3.org/TR/2001/REC-SVG-20010904/DTD/svg10.dtd">
<svg version="1.0" xmlns="http://www.w3.org/2000/svg"
 width="499.000000pt" height="500.000000pt" viewBox="0 0 499.000000 500.000000"
 preserveAspectRatio="xMidYMid meet">

<g transform="translate(0.000000,500.000000) scale(0.100000,-0.100000)"
fill="#000000" stroke="none">
<path d="M1830 3700 c-70 -71 -90 -98 -95 -126 -4 -28 -33 -68 -123 -171 -64
-75 -149 -173 -189 -219 l-72 -83 34 -98 c18 -54 67 -195 108 -313 42 -118
107 -305 145 -415 75 -214 72 -211 99 -121 5 17 13 31 19 33 5 1 61 -67 124
-152 63 -85 117 -154 120 -155 3 0 4 45 2 100 -3 55 -1 100 3 100 7 0 59 -54
306 -316 57 -62 105 -110 107 -109 2 2 14 43 28 91 13 48 27 91 32 96 7 7 581
-11 855 -27 59 -4 107 -3 106 2 0 4 -36 34 -80 66 -43 32 -79 63 -79 68 0 5
11 9 24 9 19 0 36 20 90 106 l66 107 0 91 0 91 60 85 60 85 0 164 0 164 -175
177 -175 177 0 46 c0 49 -16 72 -142 202 l-48 50 0 143 0 142 -560 0 -560 0
-90 -90z m1038 -152 l-3 -53 -103 -3 -103 -3 -19 -32 c-11 -18 -20 -35 -20
-39 0 -5 83 -8 183 -8 l184 0 76 -83 c57 -63 77 -93 83 -123 12 -67 39 -106
163 -229 67 -66 121 -123 121 -127 0 -5 -42 -8 -92 -8 l-93 0 -75 69 c-70 63
-79 77 -119 171 -24 56 -49 104 -55 106 -7 3 -79 3 -161 2 l-149 -3 104 -74
c58 -41 159 -113 225 -160 66 -47 167 -132 225 -188 l105 -102 0 -72 c0 -83
13 -70 -142 -134 -116 -48 -129 -60 -100 -98 11 -15 22 -12 124 29 62 25 117
42 123 39 6 -4 10 -56 10 -126 l0 -119 -197 0 -198 1 -42 37 -42 37 -2 187 -2
187 41 49 c23 27 48 55 57 62 30 25 16 32 -55 28 l-69 -4 -78 -79 c-123 -126
-143 -152 -143 -191 0 -19 -4 -34 -10 -34 -7 0 -150 101 -183 130 -4 4 -8 198
-7 431 l0 424 77 77 78 78 143 0 143 0 -3 -52z m652 -897 c0 -86 -1 -89 -35
-135 -20 -25 -40 -46 -45 -46 -20 0 -11 129 11 173 23 45 58 97 65 97 2 0 4
-40 4 -89z"/>
<path d="M731 1366 c-17 -20 -2 -48 23 -44 24 3 34 37 14 49 -18 12 -24 11
-37 -5z"/>
<path d="M1285 1348 c-31 -24 -55 -74 -55 -113 0 -17 -7 -29 -22 -35 l-23 -9
23 0 c22 -1 22 -3 22 -135 0 -79 -4 -137 -10 -141 -23 -14 -7 -25 35 -25 42 0
58 11 35 25 -6 4 -10 62 -10 141 l0 134 33 1 32 1 -30 7 c-29 6 -30 9 -33 65
-5 90 39 124 89 71 29 -30 59 -33 59 -5 0 43 -97 56 -145 18z"/>
<path d="M2631 1353 l-34 -14 24 -13 c24 -12 24 -12 27 -195 2 -144 -1 -189
-12 -212 l-14 -29 48 0 49 0 -15 28 c-17 33 -20 202 -3 219 8 8 8 13 0 17 -7
5 -11 47 -11 112 0 114 0 113 -59 87z"/>
<path d="M3034 1351 c-51 -23 -74 -55 -74 -102 0 -50 26 -79 131 -150 48 -32
93 -68 99 -78 39 -75 -53 -145 -142 -108 -25 11 -41 27 -57 61 -13 25 -25 46
-27 46 -2 0 -4 -29 -4 -65 0 -60 2 -65 18 -56 12 6 36 5 74 -6 95 -27 173 6
198 82 22 67 -13 117 -128 188 -46 28 -90 60 -98 71 -35 50 6 109 75 109 53 0
86 -23 110 -75 l19 -43 1 69 c1 61 -1 67 -15 55 -12 -10 -23 -10 -47 -2 -64
22 -91 23 -133 4z"/>
<path d="M1697 1353 c-4 -3 -7 -25 -7 -47 1 -35 2 -38 12 -21 19 35 41 45 100
45 l58 0 0 -205 0 -204 -27 -15 c-27 -14 -24 -15 57 -15 80 0 84 1 63 16 -23
15 -23 19 -23 219 l0 204 58 0 c59 0 81 -10 100 -45 10 -17 11 -14 12 21 0 29
-5 44 -16 48 -21 8 -379 8 -387 -1z"/>
<path d="M3370 1285 c0 -8 -16 -32 -35 -54 -33 -36 -34 -39 -15 -44 19 -5 20
-13 20 -134 0 -93 4 -134 14 -148 18 -24 71 -24 96 1 19 19 19 19 -17 19 -33
0 -37 3 -45 33 -5 18 -7 76 -6 130 l3 97 35 6 35 6 -35 4 c-35 4 -35 4 -33 52
1 26 -3 47 -8 47 -5 0 -9 -7 -9 -15z"/>
<path d="M727 1193 c-37 -15 -37 -16 -17 -30 18 -13 20 -25 20 -121 0 -81 -4
-113 -16 -130 -15 -22 -15 -22 42 -22 55 0 56 1 41 18 -14 15 -17 42 -17 155
0 75 -3 138 -7 140 -5 3 -25 -2 -46 -10z"/>
<path d="M870 1190 c-20 -11 -28 -19 -19 -20 25 0 29 -21 29 -136 0 -91 -3
-107 -20 -124 l-20 -20 67 0 c64 0 66 1 45 16 -22 15 -22 21 -21 149 1 127 -3
156 -19 155 -4 -1 -23 -9 -42 -20z"/>
<path d="M983 1184 c-22 -20 -23 -23 -6 -15 32 16 51 13 73 -9 18 -18 20 -33
20 -127 0 -85 -3 -110 -17 -125 -15 -17 -14 -18 42 -18 52 0 56 1 44 16 -9 12
-16 56 -19 136 -5 116 -6 120 -33 144 -36 31 -69 30 -104 -2z"/>
<path d="M1456 1187 c-48 -27 -75 -62 -86 -113 -18 -79 20 -151 95 -180 38
-14 52 -15 83 -6 70 21 122 94 122 171 0 49 -39 109 -84 130 -54 27 -81 26
-130 -2z m107 -17 c57 -45 73 -170 30 -229 -63 -83 -162 -26 -171 99 -5 71 2
104 28 130 26 26 80 26 113 0z"/>
<path d="M2129 1187 c-44 -29 -69 -80 -69 -139 0 -85 35 -141 101 -158 46 -13
97 5 123 41 24 35 19 43 -10 20 -70 -55 -174 13 -174 114 l0 25 105 0 c116 0
120 3 90 60 -31 59 -107 76 -166 37z m102 -18 c11 -11 19 -30 17 -42 -3 -20
-9 -22 -73 -22 -69 0 -70 0 -67 25 5 55 82 80 123 39z"/>
<path d="M2413 1191 c-58 -27 -87 -83 -81 -161 5 -72 27 -106 84 -132 37 -16
51 -17 78 -8 39 12 70 43 85 83 11 28 10 28 -23 -7 -27 -29 -41 -36 -70 -36
-94 0 -149 153 -84 235 15 19 29 25 59 25 35 0 42 -4 60 -35 21 -35 42 -44 54
-25 12 19 -6 48 -39 64 -44 21 -71 20 -123 -3z"/>
<path d="M2751 1189 c-38 -23 -37 -34 3 -19 37 14 43 13 66 -10 17 -17 20 -33
20 -123 0 -77 -4 -108 -16 -125 -15 -22 -15 -22 42 -22 55 0 56 1 41 18 -13
14 -17 39 -17 103 -1 104 -13 159 -41 182 -28 22 -56 22 -98 -4z"/>
<path d="M3580 1188 c-62 -33 -93 -92 -87 -167 3 -48 9 -59 43 -91 55 -51 101
-59 162 -28 111 55 132 197 40 271 -50 40 -101 45 -158 15z m112 -17 c29 -23
48 -80 48 -142 0 -138 -120 -175 -176 -55 -49 105 -13 216 71 216 18 0 43 -9
57 -19z"/>
<path d="M3877 1193 c-37 -15 -38 -16 -16 -31 20 -14 21 -21 17 -130 -3 -77
-8 -117 -16 -120 -31 -10 -6 -22 45 -22 54 0 56 1 39 19 -14 16 -17 39 -15
150 1 73 -2 136 -7 141 -5 4 -26 1 -47 -7z"/>
<path d="M3975 1196 c-23 -16 -22 -17 25 -34 40 -14 61 -2 44 26 -15 23 -44
26 -69 8z"/>
<path d="M4122 1193 c-45 -22 -72 -78 -72 -149 0 -77 22 -118 76 -144 55 -27
90 -21 131 23 27 29 49 67 38 67 -2 0 -17 -13 -33 -30 -68 -68 -172 -7 -172
100 l0 30 105 0 c114 0 121 4 91 58 -31 57 -102 76 -164 45z m92 -22 c10 -11
16 -30 14 -43 -3 -21 -8 -23 -68 -23 -75 0 -89 17 -46 60 30 30 76 33 100 6z"/>
</g>
</svg>
